<svg id="visual" viewBox="0 0 1980 540" width="1980" height="540" xmlns="http://www.w3.org/2000/svg" xmlns:xlink="http://www.w3.org/1999/xlink" version="1.1"><rect x="0" y="0" width="1980" height="540" fill="#2b3d3a"></rect><path d="M0 212L47.2 223.2C94.3 234.3 188.7 256.7 283 265C377.3 273.3 471.7 267.7 566 266.7C660.3 265.7 754.7 269.3 848.8 257.5C943 245.7 1037 218.3 1131.2 213.3C1225.3 208.3 1319.7 225.7 1414 237.3C1508.3 249 1602.7 255 1697 266.2C1791.3 277.3 1885.7 293.7 1932.8 301.8L1980 310L1980 0L1932.8 0C1885.7 0 1791.3 0 1697 0C1602.7 0 1508.3 0 1414 0C1319.7 0 1225.3 0 1131.2 0C1037 0 943 0 848.8 0C754.7 0 660.3 0 566 0C471.7 0 377.3 0 283 0C188.7 0 94.3 0 47.2 0L0 0Z" fill="#c2ffd6"></path><path d="M0 150L47.2 160.2C94.3 170.3 188.7 190.7 283 202.2C377.3 213.7 471.7 216.3 566 209.7C660.3 203 754.7 187 848.8 191.5C943 196 1037 221 1131.2 228.2C1225.3 235.3 1319.7 224.7 1414 221.3C1508.3 218 1602.7 222 1697 215.8C1791.3 209.7 1885.7 193.3 1932.8 185.2L1980 177L1980 0L1932.8 0C1885.7 0 1791.3 0 1697 0C1602.7 0 1508.3 0 1414 0C1319.7 0 1225.3 0 1131.2 0C1037 0 943 0 848.8 0C754.7 0 660.3 0 566 0C471.7 0 377.3 0 283 0C188.7 0 94.3 0 47.2 0L0 0Z" fill="#84c5b7"></path><path d="M0 150L47.2 147.8C94.3 145.7 188.7 141.3 283 145C377.3 148.7 471.7 160.3 566 169.3C660.3 178.3 754.7 184.7 848.8 185.5C943 186.3 1037 181.7 1131.2 177C1225.3 172.3 1319.7 167.7 1414 169.3C1508.3 171 1602.7 179 1697 175.3C1791.3 171.7 1885.7 156.3 1932.8 148.7L1980 141L1980 0L1932.8 0C1885.7 0 1791.3 0 1697 0C1602.7 0 1508.3 0 1414 0C1319.7 0 1225.3 0 1131.2 0C1037 0 943 0 848.8 0C754.7 0 660.3 0 566 0C471.7 0 377.3 0 283 0C188.7 0 94.3 0 47.2 0L0 0Z" fill="#5b8b8f"></path><path d="M0 122L47.2 125C94.3 128 188.7 134 283 134.5C377.3 135 471.7 130 566 124.3C660.3 118.7 754.7 112.3 848.8 111C943 109.7 1037 113.3 1131.2 117.2C1225.3 121 1319.7 125 1414 129.7C1508.3 134.3 1602.7 139.7 1697 138.8C1791.3 138 1885.7 131 1932.8 127.5L1980 124L1980 0L1932.8 0C1885.7 0 1791.3 0 1697 0C1602.7 0 1508.3 0 1414 0C1319.7 0 1225.3 0 1131.2 0C1037 0 943 0 848.8 0C754.7 0 660.3 0 566 0C471.7 0 377.3 0 283 0C188.7 0 94.3 0 47.2 0L0 0Z" fill="#3e555e"></path><path d="M0 45L47.2 48.3C94.3 51.7 188.7 58.3 283 60.3C377.3 62.3 471.7 59.7 566 59.2C660.3 58.7 754.7 60.3 848.8 58C943 55.7 1037 49.3 1131.2 44.7C1225.3 40 1319.7 37 1414 43C1508.3 49 1602.7 64 1697 64.3C1791.3 64.7 1885.7 50.3 1932.8 43.2L1980 36L1980 0L1932.8 0C1885.7 0 1791.3 0 1697 0C1602.7 0 1508.3 0 1414 0C1319.7 0 1225.3 0 1131.2 0C1037 0 943 0 848.8 0C754.7 0 660.3 0 566 0C471.7 0 377.3 0 283 0C188.7 0 94.3 0 47.2 0L0 0Z" fill="#212529"></path></svg>