<?xml version="1.0" encoding="UTF-8" standalone="no"?>
<svg
   height="48"
   viewBox="0 -960 960 960"
   width="48"
   version="1.1"
   id="svg4"
   sodipodi:docname="default-profile.svg"
   inkscape:version="1.2.2 (b0a8486541, 2022-12-01)"
   xmlns:inkscape="http://www.inkscape.org/namespaces/inkscape"
   xmlns:sodipodi="http://sodipodi.sourceforge.net/DTD/sodipodi-0.dtd"
   xmlns="http://www.w3.org/2000/svg"
   xmlns:svg="http://www.w3.org/2000/svg">
  <defs
     id="defs8" />
  <sodipodi:namedview
     id="namedview6"
     pagecolor="#505050"
     bordercolor="#ffffff"
     borderopacity="1"
     inkscape:showpageshadow="0"
     inkscape:pageopacity="0"
     inkscape:pagecheckerboard="1"
     inkscape:deskcolor="#505050"
     showgrid="false"
     inkscape:zoom="20.5"
     inkscape:cx="23.756098"
     inkscape:cy="24"
     inkscape:window-width="2532"
     inkscape:window-height="1392"
     inkscape:window-x="0"
     inkscape:window-y="0"
     inkscape:window-maximized="1"
     inkscape:current-layer="svg4" />
  <path
     d="M480-481q-66 0-108-42t-42-108q0-66 42-108t108-42q66 0 108 42t42 108q0 66-42 108t-108 42ZM160-160v-94q0-38 19-65t49-41q67-30 128.5-45T480-420q62 0 123 15.5t127.921 44.694q31.301 14.126 50.19 40.966Q800-292 800-254v94H160Zm60-60h520v-34q0-16-9.5-30.5T707-306q-64-31-117-42.5T480-360q-57 0-111 11.5T252-306q-14 7-23 21.5t-9 30.5v34Zm260-321q39 0 64.5-25.5T570-631q0-39-25.5-64.5T480-721q-39 0-64.5 25.5T390-631q0 39 25.5 64.5T480-541Zm0-90Zm0 411Z"
     id="path2"
     inkscape:label="path2"
     style="fill:#adb5bd;fill-opacity:1" />
</svg>
