<svg id="visual" viewBox="0 0 1920 1000" width="1920" height="1000" xmlns="http://www.w3.org/2000/svg" xmlns:xlink="http://www.w3.org/1999/xlink" version="1.1"><rect x="0" y="0" width="1920" height="1000" fill="#113259"></rect><path d="M0 635L17.8 599.3C35.7 563.7 71.3 492.3 106.8 485.8C142.3 479.3 177.7 537.7 213.2 580.8C248.7 624 284.3 652 320 671.3C355.7 690.7 391.3 701.3 426.8 689C462.3 676.7 497.7 641.3 533.2 644.2C568.7 647 604.3 688 640 666.5C675.7 645 711.3 561 746.8 509C782.3 457 817.7 437 853.2 422.3C888.7 407.7 924.3 398.3 960 405.3C995.7 412.3 1031.3 435.7 1066.8 504.2C1102.3 572.7 1137.7 686.3 1173.2 730.8C1208.7 775.3 1244.3 750.7 1280 644.7C1315.7 538.7 1351.3 351.3 1386.8 297.2C1422.3 243 1457.7 322 1493.2 353.2C1528.7 384.3 1564.3 367.7 1600 350.2C1635.7 332.7 1671.3 314.3 1706.8 281.2C1742.3 248 1777.7 200 1813.2 224.2C1848.7 248.3 1884.3 344.7 1902.2 392.8L1920 441L1920 0L1902.2 0C1884.3 0 1848.7 0 1813.2 0C1777.7 0 1742.3 0 1706.8 0C1671.3 0 1635.7 0 1600 0C1564.3 0 1528.7 0 1493.2 0C1457.7 0 1422.3 0 1386.8 0C1351.3 0 1315.7 0 1280 0C1244.3 0 1208.7 0 1173.2 0C1137.7 0 1102.3 0 1066.8 0C1031.3 0 995.7 0 960 0C924.3 0 888.7 0 853.2 0C817.7 0 782.3 0 746.8 0C711.3 0 675.7 0 640 0C604.3 0 568.7 0 533.2 0C497.7 0 462.3 0 426.8 0C391.3 0 355.7 0 320 0C284.3 0 248.7 0 213.2 0C177.7 0 142.3 0 106.8 0C71.3 0 35.7 0 17.8 0L0 0Z" fill="#06090f" stroke-linecap="round" stroke-linejoin="miter"></path></svg>